# xmcd CD database file
#
# Track frame offsets:
#	150
#	35145
#	38437
#	65753
#	90861
#	92758
#	124981
#	150413
#	178178
#	183297
#	217584
#	242656
#	257588
#	276477
#	309420
#
# Disc length: 4401 seconds
#
# Revision: 1
# Processed by: cddbd v1.5.1PL0 Copyright (c) Steve Scherf et al.
# Submitted via: CDex 1.51
#
DISCID=c4112f0f
DTITLE=Mondo Grosso - MG4
DYEAR=1900
DGENRE=General Rock
TTITLE0=MG2SS
TTITLE1=into the wind
TTITLE2=BUTTERFLY
TTITLE3=SHOW ME YOUR LOVE
TTITLE4=into the sound
TTITLE5=LIFE feat. bird
TTITLE6=MG4BB
TTITLE7=CENARIO
TTITLE8=into the seawind
TTITLE9=SAMBA DO GATO
TTITLE10=NOW YOU KNOW BETTER
TTITLE11=STAR SUITE ? New Star
TTITLE12=STAR SUITE ? Fading Star
TTITLE13=STAR SUITE ? North Star
TTITLE14=1974 -WAY HOME-
EXTD=YEAR: 不明
EXTT0=
EXTT1=
EXTT2=
EXTT3=
EXTT4=
EXTT5=
EXTT6=
EXTT7=
EXTT8=
EXTT9=
EXTT10=
EXTT11=
EXTT12=
EXTT13=
EXTT14=
PLAYORDER=
